#!Matlab matrix to amc conversion
:FULLY-SPECIFIED
:DEGREES
121
root -1.336707 0.709802 47.300254 6.065487 5.061812 4.267089
lowerback -5.996095 -3.789273 -7.111414
upperback -1.563575 -4.692782 1.435575
thorax 2.323651 -2.370582 5.101765
lowerneck -22.209375 -1.474250 -10.806103
upperneck 29.599182 -1.295114 9.889818
head 13.957109 -0.417793 5.647754
rclavicle 0.000000 -0.000000
rhumerus -49.576854 19.519872 -93.603205
rradius 36.124478
rwrist -21.008868
rhand -28.856200 -18.800500
rfingers 7.125020
rthumb -2.212790 -48.768800
lclavicle 0.000000 -0.000000
lhumerus -12.866488 -26.258359 88.955026
lradius 32.080627
lwrist 8.907860
lhand -19.668800 -28.799300
lfingers 7.125020
lthumb 6.659510 1.076010
rfemur -37.943681 -2.995128 16.731325
rtibia 36.166406
rfoot -16.343687 -6.295485
rtoes -20.766800
lfemur 1.739740 1.452080 -29.386886
ltibia 11.562973
lfoot -17.914369 -1.327216
ltoes -22.051700
122
root -1.365198 0.678678 47.687165 6.450884 5.716119 4.728181
lowerback -6.301162 -3.992107 -7.650499
upperback -1.579113 -4.899510 1.305073
thorax 2.544642 -2.484687 5.226961
lowerneck -22.061077 -1.619445 -11.004202
upperneck 29.104199 -1.550421 10.271572
head 13.759535 -0.491842 5.765801
rclavicle 0.000000 -0.000000
rhumerus -50.958889 18.655039 -93.467406
rradius 35.806596
rwrist -20.892354
rhand -28.856200 -18.800500
rfingers 7.125020
rthumb -2.212790 -48.768800
lclavicle 0.000000 -0.000000
lhumerus -10.204602 -26.926695 87.406417
lradius 33.731009
lwrist 9.315246
lhand -19.668800 -28.799300
lfingers 7.125020
lthumb 6.659510 1.076010
rfemur -39.112125 -0.226663 14.618909
rtibia 30.787863
rfoot -18.667667 -7.151373
rtoes -20.766800
lfemur 4.825788 1.725293 -29.513849
ltibia 7.844191
lfoot -17.048508 -1.765206
ltoes -22.051700
123
root -1.392511 0.644084 48.083830 6.797689 6.185624 5.156694
lowerback -6.664120 -4.137815 -8.083457
upperback -1.558565 -5.027496 1.163953
thorax 2.823020 -2.562025 5.282863
lowerneck -21.968659 -1.766848 -11.196134
upperneck 28.685427 -1.796339 10.612555
head 13.601833 -0.566645 5.872903
rclavicle 0.000000 -0.000000
rhumerus -51.943081 17.586570 -93.126400
rradius 34.962926
rwrist -20.440132
rhand -28.856200 -18.800500
rfingers 7.125020
rthumb -2.212790 -48.768800
lclavicle 0.000000 -0.000000
lhumerus -7.706216 -26.785242 86.087366
lradius 35.193554
lwrist 9.701642
lhand -19.668800 -28.799300
lfingers 7.125020
lthumb 6.659510 1.076010
rfemur -40.352566 2.318038 12.590610
rtibia 26.898006
rfoot -21.145180 -7.830462
rtoes -20.766800
lfemur 7.578235 2.134300 -29.520671
ltibia 4.992021
lfoot -16.472869 -2.253463
ltoes -22.051700
124
root -1.419338 0.602437 48.489772 7.072804 6.549125 5.653055
lowerback -7.043497 -4.302222 -8.565234
upperback -1.532816 -5.177449 1.037250
thorax 3.118904 -2.650732 5.377204
lowerneck -21.941131 -1.852087 -11.385203
upperneck 28.479764 -1.924487 10.863479
head 13.529615 -0.604963 5.975966
rclavicle 0.000000 -0.000000
rhumerus -52.861616 16.895832 -92.853577
rradius 34.158419
rwrist -20.157268
rhand -28.856200 -18.800500
rfingers 7.125020
rthumb -2.212790 -48.768800
lclavicle 0.000000 -0.000000
lhumerus -5.525211 -26.238687 85.061481
lradius 36.538604
lwrist 10.252826
lhand -19.668800 -28.799300
lfingers 7.125020
lthumb 6.659510 1.076010
rfemur -41.683251 3.887703 10.851486
rtibia 24.570124
rfoot -23.363464 -7.755990
rtoes -20.766800
lfemur 9.612988 2.606352 -29.575398
ltibia 3.761182
lfoot -16.802562 -2.791773
ltoes -22.051700
125
root -1.448657 0.553348 48.902341 7.251352 6.776456 6.069934
lowerback -7.315163 -4.437757 -8.944199
upperback -1.509627 -5.300961 0.955390
thorax 3.346169 -2.724642 5.467108
lowerneck -21.970803 -1.910321 -11.566601
upperneck 28.367130 -1.992912 11.051317
head 13.498902 -0.625791 6.068177
rclavicle 0.000000 -0.000000
rhumerus -53.484818 16.269748 -92.430821
rradius 33.242182
rwrist -19.736504
rhand -28.856200 -18.800500
rfingers 7.125020
rthumb -2.212790 -48.768800
lclavicle 0.000000 -0.000000
lhumerus -3.831728 -25.247319 84.278319
lradius 37.793963
lwrist 10.746184
lhand -19.668800 -28.799300
lfingers 7.125020
lthumb 6.659510 1.076010
rfemur -42.798103 4.593129 9.715896
rtibia 23.542752
rfoot -24.677391 -7.135362
rtoes -20.766800
lfemur 11.204835 3.140522 -29.485831
ltibia 3.460402
lfoot -17.501131 -3.443722
ltoes -22.051700
126
root -1.481106 0.498637 49.321623 7.294953 6.779304 6.258154
lowerback -7.445266 -4.495196 -9.069432
upperback -1.477287 -5.343236 0.932956
thorax 3.483724 -2.755699 5.490795
lowerneck -22.076285 -1.953159 -11.685025
upperneck 28.290115 -2.028624 11.151567
head 13.491919 -0.636523 6.122025
rclavicle 0.000000 -0.000000
rhumerus -53.565757 15.152623 -91.536935
rradius 31.746077
rwrist -18.560483
rhand -28.856200 -18.800500
rfingers 7.125020
rthumb -2.212790 -48.768800
lclavicle 0.000000 -0.000000
lhumerus -2.712996 -23.887330 83.727846
lradius 39.057579
lwrist 11.188335
lhand -19.668800 -28.799300
lfingers 7.125020
lthumb 6.659510 1.076010
rfemur -43.421318 4.752396 9.437669
rtibia 23.504389
rfoot -24.576677 -6.258778
rtoes -20.766800
lfemur 12.887249 3.776645 -29.049404
ltibia 3.201332
lfoot -17.817068 -4.320530
ltoes -22.051700
127
root -1.515322 0.441282 49.750839 7.180060 6.556295 6.222993
lowerback -7.482115 -4.495946 -8.981297
upperback -1.441336 -5.330565 0.970588
thorax 3.554561 -2.756803 5.468287
lowerneck -22.251884 -1.943131 -11.706811
upperneck 28.310660 -1.979460 11.119740
head 13.525715 -0.617958 6.125840
rclavicle 0.000000 -0.000000
rhumerus -53.233911 13.436955 -90.113242
rradius 29.583716
rwrist -16.375209
rhand -28.856200 -18.800500
rfingers 7.125020
rthumb -2.212790 -48.768800
lclavicle 0.000000 -0.000000
lhumerus -2.166122 -22.412812 83.390299
lradius 40.425274
lwrist 11.738509
lhand -19.668800 -28.799300
lfingers 7.125020
lthumb 6.659510 1.076010
rfemur -43.491850 4.404787 10.051761
rtibia 24.179773
rfoot -22.963275 -5.100639
rtoes -20.766800
lfemur 14.925287 4.535220 -28.274960
ltibia 2.724335
lfoot -17.452728 -5.445520
ltoes -22.051700
128
root -1.550310 0.385461 50.193492 6.919290 6.193855 6.059296
lowerback -7.472884 -4.491972 -8.814170
upperback -1.424275 -5.324454 1.063601
thorax 3.574224 -2.758308 5.463318
lowerneck -22.456487 -1.846253 -11.653709
upperneck 28.483257 -1.793712 10.954402
head 13.608313 -0.552002 6.094415
rclavicle 0.000000 -0.000000
rhumerus -52.784552 11.362179 -88.286756
rradius 27.048943
rwrist -13.311985
rhand -28.856200 -18.800500
rfingers 7.125020
rthumb -2.212790 -48.768800
lclavicle 0.000000 -0.000000
lhumerus -2.158756 -21.057910 83.232038
lradius 41.926856
lwrist 12.484100
lhand -19.668800 -28.799300
lfingers 7.125020
lthumb 6.659510 1.076010
rfemur -43.089583 3.468281 11.396623
rtibia 25.338385
rfoot -20.079295 -3.526439
rtoes -20.766800
lfemur 17.272997 5.391579 -27.298518
ltibia 2.168257
lfoot -16.395765 -6.684736
ltoes -22.051700
